<svg width="97" height="97" viewBox="0 0 97 97" fill="none" xmlns="http://www.w3.org/2000/svg">
<g clip-path="url(#clip0_3004_27)">
<rect width="96.208" height="96.208" rx="20.7703" fill="#0B68F7"/>
<path d="M47.338 21.9766V21.9775H47.339L47.3399 21.9766L47.3409 21.9775C47.3429 21.9776 47.3448 21.9765 47.3468 21.9766L47.3458 21.9775C48.0663 21.9888 48.7638 22.2315 49.3351 22.6709C49.9078 23.1115 50.3235 23.7251 50.5186 24.4209L60.4835 59.8545L65.3839 46.791L65.4825 46.5557C65.7324 46.0175 66.1213 45.5537 66.6114 45.2139C67.1716 44.8255 67.837 44.6174 68.5186 44.6172H146.024C146.912 44.6172 147.764 44.9697 148.392 45.5977C149.02 46.2258 149.373 47.0785 149.373 47.9668C149.373 48.8549 149.02 49.7069 148.392 50.335C147.764 50.963 146.912 51.3154 146.024 51.3154H70.8399L63.1632 71.7812L63.1642 71.7822C62.9164 72.4433 62.4656 73.0095 61.877 73.3994C61.2886 73.7892 60.592 73.9837 59.8868 73.9541C59.1815 73.9244 58.503 73.6723 57.9493 73.2344C57.4648 72.8511 57.0973 72.3421 56.8849 71.7656L56.8028 71.5146L47.1251 37.0957L43.4132 48.9648C43.2005 49.6459 42.7759 50.2412 42.2013 50.6641C41.6983 51.0342 41.1034 51.255 40.4845 51.3047L40.2179 51.3154H-31.787C-32.6752 51.3154 -33.5271 50.9629 -34.1552 50.335C-34.7832 49.7069 -35.1365 48.8549 -35.1366 47.9668C-35.1366 47.0785 -34.7833 46.2258 -34.1552 45.5977C-33.5271 44.9697 -32.6752 44.6172 -31.787 44.6172H37.756L44.0948 24.3271L44.1856 24.0732C44.4209 23.4896 44.8164 22.9822 45.3292 22.6113C45.9115 22.1904 46.6139 21.9689 47.3321 21.9775L47.3331 21.9766H47.338Z" fill="white" stroke="white" stroke-width="1.03851"/>
</g>
<defs>
<clipPath id="clip0_3004_27">
<rect width="96.208" height="96.208" rx="20.7703" fill="white"/>
</clipPath>
</defs>
</svg>
